<?xml version="1.0" encoding="UTF-8"?> <svg xmlns="http://www.w3.org/2000/svg" width="176" height="57" viewBox="0 0 176 57" fill="none"><g clip-path="url(#clip0_373_1869)"><path d="M68.7485 52.7165H62.0039V41.3955H68.6352V42.527H63.4104V46.3118H68.2952V47.4434H63.4104V51.5831H68.7485V52.7146V52.7165ZM70.8184 52.7165H69.3635L72.1302 48.7867L69.5586 45.0837H71.1119L72.9235 47.737L74.6868 45.0837H76.11L73.6036 48.6901L76.3702 52.7183H74.8336L72.8288 49.7418L70.824 52.7183L70.8184 52.7165ZM81.0691 52.9116C79.8558 52.9116 79.1442 52.3783 78.6425 51.7466V55.9513H77.2843V45.0818H78.5626V46.2301C78.9993 45.5352 79.7425 44.8886 81.0691 44.8886C83.0739 44.8886 84.5789 46.4252 84.5789 48.9001C84.5789 51.375 83.0739 52.9116 81.0691 52.9116ZM78.6425 48.3817V49.4166C78.6425 51.1464 79.9357 51.7949 80.9223 51.7949C82.314 51.7949 83.1705 50.55 83.1705 48.9001C83.1705 47.2502 82.314 46.0053 80.9223 46.0053C79.9357 46.0053 78.6425 46.6519 78.6425 48.3835V48.3817ZM91.0987 50.485L92.2953 50.9699C91.7137 52.1349 90.7587 52.9116 89.1571 52.9116C86.8606 52.9116 85.5172 51.2133 85.5172 48.8834C85.5172 46.5534 86.8922 44.8886 89.1088 44.8886C91.4369 44.8886 92.5536 46.7002 92.5536 48.6901V49.1435H86.9089C86.9572 50.5835 87.6372 51.8599 89.1738 51.8599C90.2255 51.8599 90.7104 51.375 91.0987 50.485ZM89.0772 45.9402C87.8472 45.9402 87.0873 46.8785 86.9591 48.1234H91.1638C91.0987 46.7652 90.2589 45.9402 89.0772 45.9402ZM98.0645 45.067L97.7579 46.3286C97.5479 46.1353 97.2562 46.0053 96.8846 46.0053C95.8497 46.0053 94.9764 47.0402 94.9764 48.5935V52.7183H93.6182V45.0837H94.8965V46.2803C95.2849 45.3587 96.1581 44.8886 97.128 44.8886C97.4346 44.8886 97.7913 44.9369 98.0663 45.067H98.0645ZM102.659 51.5366L103.096 52.6031C102.789 52.7815 102.288 52.9097 101.721 52.9097C100.38 52.9097 99.7479 52.0197 99.7479 51.0331V46.1168H98.4547V45.0818H99.7479V42.8987L101.106 42.2836V45.0818H102.886V46.1168H101.106V50.9049C101.106 51.4716 101.398 51.7782 101.899 51.7782C102.174 51.7782 102.449 51.6815 102.659 51.5348V51.5366ZM105.168 47.0718C105.168 47.8001 105.734 48.0584 106.948 48.2516C108.564 48.495 109.859 48.98 109.859 50.5314C109.859 52.003 108.694 52.9097 106.754 52.9097C104.815 52.9097 103.778 52.068 103.601 50.5166L104.943 50.3382C105.056 51.3731 105.606 51.8581 106.771 51.8581C107.871 51.8581 108.501 51.4047 108.501 50.6132C108.501 49.9016 107.999 49.6098 106.528 49.3683C104.586 49.0617 103.811 48.365 103.811 47.1368C103.811 45.6653 105.17 44.8886 106.723 44.8886C108.39 44.8886 109.553 45.6968 109.731 47.0402L108.388 47.3152C108.274 46.4252 107.724 45.9235 106.673 45.9235C105.816 45.9235 105.168 46.2951 105.168 47.0718ZM113.9 48.9001C113.9 46.4252 115.355 44.8886 117.329 44.8886C118.622 44.8886 119.367 45.5352 119.755 46.2301V45.0818H121.033V52.7165H119.755V51.5682C119.318 52.2631 118.624 52.9097 117.329 52.9097C115.355 52.9097 113.9 51.3731 113.9 48.8982V48.9001ZM117.475 46.0053C116.134 46.0053 115.309 47.2502 115.309 48.9001C115.309 50.55 116.134 51.7949 117.475 51.7949C118.349 51.7949 119.675 51.2282 119.675 49.4017V48.3984C119.675 46.5701 118.317 46.0053 117.475 46.0053ZM126.266 51.5366L126.702 52.6031C126.396 52.7815 125.894 52.9097 125.327 52.9097C123.986 52.9097 123.354 52.0197 123.354 51.0331V46.1168H122.061V45.0818H123.354V42.8987L124.712 42.2836V45.0818H126.492V46.1168H124.712V50.9049C124.712 51.4716 125.004 51.7782 125.506 51.7782C125.781 51.7782 126.056 51.6815 126.266 51.5348V51.5366Z" fill="black"></path><path d="M130.747 52.7165V41.3955H132.105V46.1335C132.574 45.4051 133.27 44.8886 134.435 44.8886C135.907 44.8886 137.152 45.7451 137.152 47.4285V52.7183H135.793V47.6403C135.793 46.4754 134.952 46.0071 134.16 46.0071C133.077 46.0071 132.105 46.9622 132.105 48.5619V52.7183H130.747V52.7165ZM141.936 44.8886C144.264 44.8886 145.608 46.5701 145.608 48.9001C145.608 51.23 144.266 52.9116 141.936 52.9116C139.606 52.9116 138.265 51.23 138.265 48.9001C138.265 46.5701 139.606 44.8886 141.936 44.8886ZM141.936 51.8265C143.456 51.8265 144.201 50.4998 144.201 48.8982C144.201 47.2966 143.458 45.97 141.936 45.97C140.414 45.97 139.671 47.2966 139.671 48.8982C139.671 50.4998 140.414 51.8265 141.936 51.8265ZM146.804 52.7165V45.0818H148.082V46.2301C148.584 45.4051 149.279 44.8886 150.379 44.8886C151.479 44.8886 152.304 45.3735 152.676 46.2803C153.112 45.6002 154.019 44.8886 155.15 44.8886C156.525 44.8886 157.674 45.7451 157.674 47.4285V52.7183H156.315V47.6403C156.315 46.4754 155.572 46.0071 154.844 46.0071C153.857 46.0071 152.919 46.9622 152.919 48.5619V52.7183H151.561V47.6403C151.561 46.4754 150.801 46.0071 150.072 46.0071C149.103 46.0071 148.164 46.9622 148.164 48.5619V52.7183H146.806L146.804 52.7165ZM164.372 50.485L165.568 50.9699C164.987 52.1349 164.032 52.9116 162.43 52.9116C160.134 52.9116 158.79 51.2133 158.79 48.8834C158.79 46.5534 160.165 44.8886 162.38 44.8886C164.71 44.8886 165.825 46.7002 165.825 48.6901V49.1435H160.18C160.228 50.5835 160.908 51.8599 162.445 51.8599C163.497 51.8599 163.982 51.375 164.37 50.485H164.372ZM162.35 45.9402C161.12 45.9402 160.36 46.8785 160.232 48.1234H164.437C164.372 46.7652 163.53 45.9402 162.35 45.9402Z" fill="#DA1B27"></path><mask id="mask0_373_1869" style="mask-type:luminance" maskUnits="userSpaceOnUse" x="0" y="-1" width="170" height="58"><path d="M169.5 -0.0498047H0.200684V56.1778H169.5V-0.0498047Z" fill="white"></path></mask><g mask="url(#mask0_373_1869)"><path d="M117.476 27.9882C117.476 30.1862 118.715 31.7562 120.881 31.7562C122.357 31.7562 123.514 30.9722 124.217 30.1045L126.457 32.4586C125.064 34.1104 123.288 34.9669 120.8 34.9669C116.547 34.9669 113.76 32.2208 113.76 27.9789C113.76 23.737 116.857 20.9072 120.727 20.9072C123.36 20.9072 125.3 22.0834 126.539 23.7351L124.062 25.8607C123.288 24.993 122.359 24.2089 120.883 24.2089C118.715 24.2089 117.478 25.7771 117.478 27.977V27.9882H117.476ZM83.3382 21.0707C81.5619 21.0707 80.1684 21.8548 79.3118 22.8767V21.3086H75.75V34.6548H79.3843V27.9046C79.3843 25.3851 80.8503 24.2089 82.398 24.2089C83.9458 24.2089 84.5663 25.0766 84.5663 26.9551V34.6566H88.2006V26.171C88.2006 22.8674 86.4151 21.0614 83.3177 21.0614L83.3382 21.0726V21.0707ZM137.76 21.3086H141.166V34.7384H137.76V33.0866C136.831 34.1903 135.51 34.8926 133.579 34.8926C129.852 34.8926 127.221 32.3006 127.221 27.9046C127.221 23.7444 130.162 20.989 133.89 20.989C135.437 20.989 136.903 21.6189 137.76 22.6408V21.3086ZM137.676 27.3583C137.676 25.4687 136.283 24.1383 134.352 24.1383C132.184 24.1383 130.935 25.6248 130.935 27.9064C130.935 30.3423 132.256 31.7562 134.27 31.7562C136.128 31.7562 137.676 30.424 137.676 28.6905V27.3583ZM108.494 23.5902V21.3086H105.016V34.6548H108.65V29.2349C108.65 26.0967 111.127 24.2907 113.461 24.1365L112.294 20.9983C110.436 21.1525 109.352 22.4122 108.494 23.5902ZM147.596 23.5902V21.3086H144.034V34.6548H147.75V29.2349C147.75 26.0967 150.227 24.2907 152.55 24.1365L151.394 20.9983C149.525 21.1525 148.369 22.4122 147.594 23.5902H147.596ZM72.2012 30.1137L74.2134 32.4679C72.7474 34.1921 70.7352 34.9762 68.2566 34.9762C64.076 34.9762 61.1348 32.0758 61.1348 27.9882C61.1348 23.9005 64.076 20.9165 68.0206 20.9165C71.0455 20.9165 73.1302 22.4141 74.1317 25.2309L66.0084 31.1245C66.6271 31.7544 67.5561 31.9922 68.4034 31.9922C69.9511 31.9922 71.1904 31.2081 72.1919 30.1026L72.203 30.1137H72.2012ZM64.613 28.6998L70.0329 24.6939C69.6501 24.1476 68.9496 23.9098 68.1024 23.9098C65.7798 23.9098 64.5405 25.634 64.5405 27.6779C64.5405 27.9975 64.5405 28.3077 64.613 28.6998ZM166.095 32.4679C164.547 34.1921 162.616 34.9762 160.138 34.9762C155.946 34.9762 153.005 32.0758 153.005 27.9882C153.005 23.9005 155.874 20.9165 159.9 20.9165C162.925 20.9165 165.01 22.4141 166.022 25.2309L157.899 31.1245C158.518 31.7544 159.447 31.9922 160.221 31.9922C161.769 31.9922 163.09 31.2081 164.019 30.1026L166.104 32.4567L166.093 32.4679H166.095ZM156.505 28.6998L161.925 24.6939C161.461 24.1476 160.77 23.9098 159.913 23.9098C157.663 23.9098 156.424 25.634 156.424 27.6779C156.424 27.9975 156.424 28.3077 156.505 28.6998ZM101.383 30.1137L103.396 32.4679C101.92 34.1921 99.9062 34.9762 97.5112 34.9762C93.2582 34.9762 90.3169 32.0758 90.3169 27.9882C90.3169 23.9005 93.2582 20.9165 97.2028 20.9165C100.216 20.9165 102.312 22.4141 103.314 25.2309L95.1905 31.1245C95.8093 31.7544 96.7383 31.9922 97.5855 31.9922C99.1333 31.9922 100.373 31.2081 101.374 30.1026L101.385 30.1137H101.383ZM93.8788 28.6998L99.215 24.6939C98.823 24.1476 98.1318 23.9098 97.2734 23.9098C94.9508 23.9098 93.7115 25.634 93.7115 27.6779C93.7115 27.9975 93.7115 28.3077 93.8658 28.6998H93.8769H93.8788Z" fill="black"></path><path d="M28.7622 -0.0498047L28.3795 13.8538H27.3687L26.9878 -0.0498047H28.7641H28.7622Z" fill="#F6323E"></path><path d="M31.3228 0.187988L33.099 0.425816L30.5498 14.0823L29.5391 13.9281L31.3228 0.187988Z" fill="#F6323E"></path><path d="M50.8225 12.204L39.4476 20.1322L16.841 36.782L6.00315 45.2676L4.91992 43.8536L16.3059 35.9254L38.9125 19.2756L49.8228 10.79L50.8243 12.204H50.8225Z" fill="#F6323E"></path><path d="M32.6341 14.7124L37.2792 1.52038L35.5753 0.974121L31.7051 14.4039L32.6341 14.7142V14.7124Z" fill="#F6323E"></path><path d="M41.2333 3.40823L34.6466 15.6619L33.7993 15.1863L39.6837 2.54053L41.2314 3.40823H41.2333Z" fill="#F6323E"></path><path d="M36.5045 16.8378L44.8656 5.76215L43.4721 4.74023L35.6572 16.2804L36.5045 16.8378Z" fill="#F6323E"></path><path d="M48.1172 8.74412L38.1359 18.3241L37.4336 17.6218L46.8779 7.48438L48.1172 8.74412Z" fill="#F6323E"></path><path d="M38.9106 36.7818L49.821 45.2675L50.8225 43.8535L39.4476 35.9253L38.9106 36.7818Z" fill="#F6323E"></path><path d="M46.8799 48.5581L37.4355 38.4318L38.1379 37.7202L48.1192 47.3095L46.8799 48.5581Z" fill="#F6323E"></path><path d="M35.6592 39.764L43.474 51.3154L44.8676 50.2117L36.5064 39.2178L35.6592 39.764Z" fill="#F6323E"></path><path d="M39.6837 53.5135L33.7993 40.8677L34.6466 40.3921L41.2333 52.6458L39.6855 53.5135H39.6837Z" fill="#F6323E"></path><path d="M31.7051 41.654L35.5753 55.0002L37.2792 54.5357L32.6341 41.3325L31.7051 41.6521V41.654Z" fill="#F6323E"></path><path d="M31.3227 55.9496L29.5371 42.1278L30.5479 41.9624L33.0971 55.63L31.3208 55.9496H31.3227Z" fill="#F6323E"></path><path d="M27.3686 42.2002L26.9858 56.1763L28.7621 56.1038L28.3794 42.2002H27.3686Z" fill="#F6323E"></path><path d="M24.4276 55.9491L22.6514 55.6296L25.2006 41.9619L26.2113 42.1273L24.4258 55.9491H24.4276Z" fill="#F6323E"></path><path d="M23.1158 41.334L18.4707 54.5371L20.1745 55.0016L24.0448 41.6554L23.1158 41.3358V41.334Z" fill="#F6323E"></path><path d="M14.5186 52.6458L21.1034 40.3921L21.9507 40.8677L16.0663 53.5135L14.5186 52.6458Z" fill="#F6323E"></path><path d="M19.2454 39.2178L10.8843 50.2117L12.2778 51.3154L20.0927 39.764L19.2454 39.2178Z" fill="#F6323E"></path><path d="M7.63281 47.3095L17.6141 37.7202L18.3165 38.4318L8.87212 48.5581L7.63281 47.3095Z" fill="#F6323E"></path><path d="M15.2212 34.036L2.76123 40.0022L3.60849 41.5703L15.6857 34.9019L15.2212 34.0342V34.036Z" fill="#F6323E"></path><path d="M1.28369 35.8417L14.4441 31.9194L14.7544 32.8596L1.82066 37.566L1.28369 35.8417Z" fill="#F6323E"></path><path d="M13.9817 29.7104L0.35498 31.5165L0.665271 33.3225L14.136 30.7324L13.9817 29.7104Z" fill="#F6323E"></path><path d="M0.200684 27.1182L13.8981 27.5102V28.5321L0.200684 28.926V27.12V27.1182Z" fill="#F6323E"></path><path d="M14.136 25.3123L0.665271 22.7222L0.35498 24.5282L13.9799 26.3342L14.1341 25.3123H14.136Z" fill="#F6323E"></path><path d="M1.82066 18.4897L14.7544 23.1961L14.4441 24.1363L1.28369 20.214L1.82066 18.4897Z" fill="#F6323E"></path><path d="M15.6856 21.1524L3.60654 14.4746L2.75928 16.0539L15.2192 22.0201L15.6837 21.1524H15.6856Z" fill="#F6323E"></path><path d="M6.0011 10.7881L16.839 19.2737L16.302 20.1302L4.91602 12.202L5.99924 10.7881H6.0011Z" fill="#F6323E"></path><path d="M18.3165 17.6218L8.87212 7.48438L7.63281 8.74412L17.6141 18.3241L18.3165 17.6218Z" fill="#F6323E"></path><path d="M12.2778 4.74023L20.0927 16.2804L19.2454 16.8378L10.8843 5.76215L12.2778 4.74023Z" fill="#F6323E"></path><path d="M21.9507 15.1863L16.0663 2.54053L14.5186 3.40823L21.1034 15.6619L21.9507 15.1863Z" fill="#F6323E"></path><path d="M20.1745 0.972168L24.0448 14.402L23.1158 14.7123L18.4707 1.51843L20.1745 0.972168Z" fill="#F6323E"></path><path d="M26.2132 13.9262L24.4276 0.187988L22.6514 0.425816L25.2006 14.0823L26.2113 13.9281L26.2132 13.9262Z" fill="#F6323E"></path><path d="M167.91 19.3555C167.025 19.3555 166.319 20.0132 166.319 20.9274C166.319 21.8415 167.025 22.5085 167.91 22.5085C168.794 22.5085 169.5 21.8508 169.5 20.9274C169.5 20.0039 168.794 19.3555 167.91 19.3555ZM167.91 22.1444C167.259 22.1444 166.728 21.6334 166.728 20.9274C166.728 20.2213 167.261 19.7141 167.91 19.7141C168.558 19.7141 169.097 20.225 169.097 20.9274C169.097 21.6297 168.564 22.1444 167.91 22.1444ZM167.949 20.1173H167.356V21.7207H167.724V21.1485H167.902L168.218 21.7207H168.651L168.287 21.0964C168.473 21.0091 168.577 20.8623 168.577 20.6245C168.577 20.2603 168.33 20.1173 167.949 20.1173ZM167.724 20.8196V20.4257H167.91C168.096 20.4257 168.174 20.474 168.174 20.6171C168.174 20.7508 168.086 20.8215 167.91 20.8215H167.724V20.8196Z" fill="black"></path></g><path d="M165.959 43.9672H166.944V44.1753H166.583V45.2195H166.319V44.1753H165.959V43.9672ZM167.75 45.2195C167.694 45.0337 167.494 44.5172 167.438 44.2905H167.434V45.2195H167.191V43.9653H167.542C167.598 44.1251 167.65 44.2682 167.698 44.4038C167.776 44.6286 167.85 44.8683 167.876 44.9278C167.889 44.8665 167.977 44.6286 168.046 44.4038C168.088 44.27 168.137 44.127 168.192 43.9653H168.54V45.2195H168.306V44.2905H168.302C168.241 44.5023 168.038 45.0764 167.99 45.2195H167.752H167.75Z" fill="#DA1B27"></path></g><defs><clipPath id="clip0_373_1869"><rect width="175.241" height="56.3308" fill="white" transform="translate(0.200684 0.0742188)"></rect></clipPath></defs></svg> 